ISO-10303-21;
HEADER;
FILE_DESCRIPTION((''),'2;1');
FILE_NAME('GNHGHGHGH','2025-11-19T15:44:52',('dilendamian'),(''),
'CREO PARAMETRIC BY PTC INC, 2025093','CREO PARAMETRIC BY PTC INC, 2025093','');
FILE_SCHEMA(('CONFIG_CONTROL_DESIGN'));
ENDSEC;
DATA;
#1=DIRECTION('',(0.E0,-9.922178988327E-1,-1.245136186770E-1));
#2=VECTOR('',#1,5.925E0);
#3=CARTESIAN_POINT('',(0.E0,5.878891050584E0,7.377431906615E-1));
#4=LINE('',#3,#2);
#5=DIRECTION('',(0.E0,-1.E0,0.E0));
#6=VECTOR('',#5,7.5E0);
#7=CARTESIAN_POINT('',(0.E0,0.E0,0.E0));
#8=LINE('',#7,#6);
#9=DIRECTION('',(0.E0,0.E0,1.E0));
#10=VECTOR('',#9,2.E1);
#11=CARTESIAN_POINT('',(0.E0,-7.5E0,0.E0));
#12=LINE('',#11,#10);
#13=DIRECTION('',(0.E0,1.E0,0.E0));
#14=VECTOR('',#13,1.339E1);
#15=CARTESIAN_POINT('',(0.E0,-7.5E0,2.E1));
#16=LINE('',#15,#14);
#17=DIRECTION('',(0.E0,0.E0,-1.E0));
#18=VECTOR('',#17,1.148725594072E1);
#19=CARTESIAN_POINT('',(0.E0,5.89E0,2.E1));
#20=LINE('',#19,#18);
#21=CARTESIAN_POINT('',(0.E0,4.89E0,8.512744059284E0));
#22=DIRECTION('',(-1.E0,0.E0,0.E0));
#23=DIRECTION('',(0.E0,1.E0,0.E0));
#24=AXIS2_PLACEMENT_3D('',#21,#22,#23);
#26=DIRECTION('',(0.E0,-7.071067811865E-1,-7.071067811865E-1));
#27=VECTOR('',#26,8.444365081390E-1);
#28=CARTESIAN_POINT('',(0.E0,5.597106781187E0,7.805637278098E0));
#29=LINE('',#28,#27);
#30=CARTESIAN_POINT('',(0.E0,5.353553390593E0,6.854977106318E0));
#31=DIRECTION('',(1.E0,0.E0,0.E0));
#32=DIRECTION('',(0.E0,-7.071067811865E-1,7.071067811865E-1));
#33=AXIS2_PLACEMENT_3D('',#30,#31,#32);
#35=DIRECTION('',(0.E0,8.660254037844E-1,5.E-1));
#36=VECTOR('',#35,1.612477651700E0);
#37=CARTESIAN_POINT('',(0.E0,5.603553390593E0,6.421964404426E0));
#38=LINE('',#37,#36);
#39=CARTESIAN_POINT('',(0.E0,1.1E1,3.E-1));
#40=DIRECTION('',(-1.E0,0.E0,0.E0));
#41=DIRECTION('',(0.E0,-5.E-1,8.660254037844E-1));
#42=AXIS2_PLACEMENT_3D('',#39,#40,#41);
#44=DIRECTION('',(0.E0,1.E0,0.E0));
#45=VECTOR('',#44,1.85E1);
#46=CARTESIAN_POINT('',(0.E0,1.1E1,8.3E0));
#47=LINE('',#46,#45);
#48=CARTESIAN_POINT('',(0.E0,2.95E1,7.8E0));
#49=DIRECTION('',(-1.E0,0.E0,0.E0));
#50=DIRECTION('',(0.E0,-2.842170943040E-14,1.E0));
#51=AXIS2_PLACEMENT_3D('',#48,#49,#50);
#53=DIRECTION('',(0.E0,0.E0,-1.E0));
#54=VECTOR('',#53,1.55E0);
#55=CARTESIAN_POINT('',(0.E0,3.E1,7.8E0));
#56=LINE('',#55,#54);
#57=CARTESIAN_POINT('',(0.E0,3.025E1,6.25E0));
#58=DIRECTION('',(1.E0,0.E0,0.E0));
#59=DIRECTION('',(0.E0,-1.E0,0.E0));
#60=AXIS2_PLACEMENT_3D('',#57,#58,#59);
#62=DIRECTION('',(0.E0,1.E0,0.E0));
#63=VECTOR('',#62,5.75E0);
#64=CARTESIAN_POINT('',(0.E0,3.025E1,6.E0));
#65=LINE('',#64,#63);
#66=DIRECTION('',(0.E0,0.E0,-1.E0));
#67=VECTOR('',#66,3.E0);
#68=CARTESIAN_POINT('',(0.E0,3.6E1,6.E0));
#69=LINE('',#68,#67);
#70=DIRECTION('',(0.E0,-1.E0,0.E0));
#71=VECTOR('',#70,5.75E0);
#72=CARTESIAN_POINT('',(0.E0,3.6E1,3.E0));
#73=LINE('',#72,#71);
#74=CARTESIAN_POINT('',(0.E0,3.025E1,2.75E0));
#75=DIRECTION('',(1.E0,0.E0,0.E0));
#76=DIRECTION('',(0.E0,0.E0,1.E0));
#77=AXIS2_PLACEMENT_3D('',#74,#75,#76);
#79=DIRECTION('',(0.E0,0.E0,-1.E0));
#80=VECTOR('',#79,1.45E0);
#81=CARTESIAN_POINT('',(0.E0,3.E1,2.75E0));
#82=LINE('',#81,#80);
#83=CARTESIAN_POINT('',(0.E0,2.95E1,1.3E0));
#84=DIRECTION('',(-1.E0,0.E0,0.E0));
#85=DIRECTION('',(0.E0,1.E0,0.E0));
#86=AXIS2_PLACEMENT_3D('',#83,#84,#85);
#88=DIRECTION('',(0.E0,-1.E0,0.E0));
#89=VECTOR('',#88,2.2625E1);
#90=CARTESIAN_POINT('',(0.E0,2.95E1,8.E-1));
#91=LINE('',#90,#89);
#92=CARTESIAN_POINT('',(0.E0,6.875E0,-7.2E0));
#93=DIRECTION('',(1.E0,0.E0,0.E0));
#94=DIRECTION('',(0.E0,0.E0,1.E0));
#95=AXIS2_PLACEMENT_3D('',#92,#93,#94);
#97=DIRECTION('',(0.E0,0.E0,1.E0));
#98=VECTOR('',#97,1.75E0);
#99=CARTESIAN_POINT('',(0.E0,2.2E1,1.85E0));
#100=LINE('',#99,#98);
#101=CARTESIAN_POINT('',(0.E0,2.1E1,3.6E0));
#102=DIRECTION('',(1.E0,0.E0,0.E0));
#103=DIRECTION('',(0.E0,1.E0,0.E0));
#104=AXIS2_PLACEMENT_3D('',#101,#102,#103);
#106=DIRECTION('',(0.E0,-1.E0,0.E0));
#107=VECTOR('',#106,3.930559893123E0);
#108=CARTESIAN_POINT('',(0.E0,2.1E1,4.6E0));
#109=LINE('',#108,#107);
#110=CARTESIAN_POINT('',(0.E0,1.706944010688E1,-4.E-1));
#111=DIRECTION('',(1.E0,0.E0,0.E0));
#112=DIRECTION('',(0.E0,0.E0,1.E0));
#113=AXIS2_PLACEMENT_3D('',#110,#111,#112);
#115=DIRECTION('',(0.E0,-9.743911956946E-1,-2.248595066988E-1));
#116=VECTOR('',#115,5.703635615027E0);
#117=CARTESIAN_POINT('',(0.E0,1.594514257338E1,4.471955978473E0));
#118=LINE('',#117,#116);
#119=CARTESIAN_POINT('',(0.E0,1.05E1,2.702243689841E0));
#120=DIRECTION('',(1.E0,0.E0,0.E0));
#121=DIRECTION('',(0.E0,-2.248595066988E-1,9.743911956946E-1));
#122=AXIS2_PLACEMENT_3D('',#119,#120,#121);
#124=DIRECTION('',(0.E0,0.E0,-1.E0));
#125=VECTOR('',#124,6.022436898413E-1);
#126=CARTESIAN_POINT('',(0.E0,1.E1,2.702243689841E0));
#127=LINE('',#126,#125);
#128=CARTESIAN_POINT('',(0.E0,1.05E1,2.1E0));
#129=DIRECTION('',(1.E0,0.E0,0.E0));
#130=DIRECTION('',(0.E0,-1.E0,0.E0));
#131=AXIS2_PLACEMENT_3D('',#128,#129,#130);
#133=DIRECTION('',(0.E0,1.E0,0.E0));
#134=VECTOR('',#133,1.125E1);
#135=CARTESIAN_POINT('',(0.E0,1.05E1,1.6E0));
#136=LINE('',#135,#134);
#137=CARTESIAN_POINT('',(0.E0,2.175E1,1.85E0));
#138=DIRECTION('',(1.E0,0.E0,0.E0));
#139=DIRECTION('',(0.E0,0.E0,-1.E0));
#140=AXIS2_PLACEMENT_3D('',#137,#138,#139);
#142=CARTESIAN_POINT('',(0.E0,0.E0,0.E0));
#143=CARTESIAN_POINT('',(0.E0,5.878891050584E0,7.377431906615E-1));
#144=VERTEX_POINT('',#142);
#145=VERTEX_POINT('',#143);
#146=CARTESIAN_POINT('',(0.E0,6.875E0,8.E-1));
#147=VERTEX_POINT('',#146);
#148=CARTESIAN_POINT('',(0.E0,2.95E1,8.E-1));
#149=VERTEX_POINT('',#148);
#150=CARTESIAN_POINT('',(0.E0,3.E1,6.25E0));
#151=CARTESIAN_POINT('',(0.E0,3.E1,7.8E0));
#152=VERTEX_POINT('',#150);
#153=VERTEX_POINT('',#151);
#154=CARTESIAN_POINT('',(0.E0,2.95E1,8.3E0));
#155=CARTESIAN_POINT('',(0.E0,1.1E1,8.3E0));
#156=VERTEX_POINT('',#154);
#157=VERTEX_POINT('',#155);
#158=CARTESIAN_POINT('',(0.E0,7.E0,7.228203230276E0));
#159=VERTEX_POINT('',#158);
#160=CARTESIAN_POINT('',(0.E0,5.603553390593E0,6.421964404426E0));
#161=VERTEX_POINT('',#160);
#162=CARTESIAN_POINT('',(0.E0,5.E0,7.208530496911E0));
#163=VERTEX_POINT('',#162);
#164=CARTESIAN_POINT('',(0.E0,5.597106781187E0,7.805637278098E0));
#165=VERTEX_POINT('',#164);
#166=CARTESIAN_POINT('',(0.E0,5.89E0,8.512744059284E0));
#167=VERTEX_POINT('',#166);
#168=CARTESIAN_POINT('',(0.E0,5.89E0,2.E1));
#169=VERTEX_POINT('',#168);
#170=CARTESIAN_POINT('',(0.E0,-7.5E0,2.E1));
#171=VERTEX_POINT('',#170);
#172=CARTESIAN_POINT('',(0.E0,-7.5E0,0.E0));
#173=VERTEX_POINT('',#172);
#174=CARTESIAN_POINT('',(0.E0,2.2E1,3.6E0));
#175=CARTESIAN_POINT('',(0.E0,2.2E1,1.85E0));
#176=VERTEX_POINT('',#174);
#177=VERTEX_POINT('',#175);
#178=CARTESIAN_POINT('',(0.E0,2.175E1,1.6E0));
#179=VERTEX_POINT('',#178);
#180=CARTESIAN_POINT('',(0.E0,1.05E1,1.6E0));
#181=VERTEX_POINT('',#180);
#182=CARTESIAN_POINT('',(0.E0,1.E1,2.1E0));
#183=VERTEX_POINT('',#182);
#184=CARTESIAN_POINT('',(0.E0,1.E1,2.702243689841E0));
#185=VERTEX_POINT('',#184);
#186=CARTESIAN_POINT('',(0.E0,1.038757024665E1,3.189439287689E0));
#187=VERTEX_POINT('',#186);
#188=CARTESIAN_POINT('',(0.E0,1.594514257338E1,4.471955978473E0));
#189=VERTEX_POINT('',#188);
#190=CARTESIAN_POINT('',(0.E0,1.706944010688E1,4.6E0));
#191=VERTEX_POINT('',#190);
#192=CARTESIAN_POINT('',(0.E0,2.1E1,4.6E0));
#193=VERTEX_POINT('',#192);
#194=CARTESIAN_POINT('',(0.E0,3.E1,1.3E0));
#195=CARTESIAN_POINT('',(0.E0,3.E1,2.75E0));
#196=VERTEX_POINT('',#194);
#197=VERTEX_POINT('',#195);
#198=CARTESIAN_POINT('',(0.E0,3.025E1,3.E0));
#199=VERTEX_POINT('',#198);
#200=CARTESIAN_POINT('',(0.E0,3.6E1,3.E0));
#201=VERTEX_POINT('',#200);
#202=CARTESIAN_POINT('',(0.E0,3.6E1,6.E0));
#203=VERTEX_POINT('',#202);
#204=CARTESIAN_POINT('',(0.E0,3.025E1,6.E0));
#205=VERTEX_POINT('',#204);
#206=CARTESIAN_POINT('',(0.E0,0.E0,0.E0));
#207=DIRECTION('',(1.E0,0.E0,0.E0));
#208=DIRECTION('',(0.E0,0.E0,-1.E0));
#209=AXIS2_PLACEMENT_3D('',#206,#207,#208);
#210=PLANE('',#209);
#212=ORIENTED_EDGE('',*,*,#211,.T.);
#214=ORIENTED_EDGE('',*,*,#213,.T.);
#216=ORIENTED_EDGE('',*,*,#215,.T.);
#218=ORIENTED_EDGE('',*,*,#217,.T.);
#220=ORIENTED_EDGE('',*,*,#219,.T.);
#222=ORIENTED_EDGE('',*,*,#221,.T.);
#224=ORIENTED_EDGE('',*,*,#223,.T.);
#226=ORIENTED_EDGE('',*,*,#225,.T.);
#228=ORIENTED_EDGE('',*,*,#227,.T.);
#230=ORIENTED_EDGE('',*,*,#229,.T.);
#232=ORIENTED_EDGE('',*,*,#231,.T.);
#234=ORIENTED_EDGE('',*,*,#233,.T.);
#236=ORIENTED_EDGE('',*,*,#235,.T.);
#238=ORIENTED_EDGE('',*,*,#237,.T.);
#240=ORIENTED_EDGE('',*,*,#239,.T.);
#242=ORIENTED_EDGE('',*,*,#241,.T.);
#244=ORIENTED_EDGE('',*,*,#243,.T.);
#246=ORIENTED_EDGE('',*,*,#245,.T.);
#248=ORIENTED_EDGE('',*,*,#247,.T.);
#250=ORIENTED_EDGE('',*,*,#249,.T.);
#252=ORIENTED_EDGE('',*,*,#251,.T.);
#254=ORIENTED_EDGE('',*,*,#253,.T.);
#255=EDGE_LOOP('',(#212,#214,#216,#218,#220,#222,#224,#226,#228,#230,#232,#234,
#236,#238,#240,#242,#244,#246,#248,#250,#252,#254));
#256=FACE_OUTER_BOUND('',#255,.F.);
#258=ORIENTED_EDGE('',*,*,#257,.T.);
#260=ORIENTED_EDGE('',*,*,#259,.T.);
#262=ORIENTED_EDGE('',*,*,#261,.T.);
#264=ORIENTED_EDGE('',*,*,#263,.T.);
#266=ORIENTED_EDGE('',*,*,#265,.T.);
#268=ORIENTED_EDGE('',*,*,#267,.T.);
#270=ORIENTED_EDGE('',*,*,#269,.T.);
#272=ORIENTED_EDGE('',*,*,#271,.T.);
#274=ORIENTED_EDGE('',*,*,#273,.T.);
#276=ORIENTED_EDGE('',*,*,#275,.T.);
#277=EDGE_LOOP('',(#258,#260,#262,#264,#266,#268,#270,#272,#274,#276));
#278=FACE_BOUND('',#277,.F.);
#279=ADVANCED_FACE('',(#256,#278),#210,.T.);
#281=DIRECTION('',(0.E0,0.E0,1.E0));
#282=VECTOR('',#281,1.75E0);
#283=CARTESIAN_POINT('',(0.E0,2.2E1,1.85E0));
#284=LINE('',#283,#282);
#285=CARTESIAN_POINT('',(0.E0,2.1E1,3.6E0));
#286=DIRECTION('',(1.E0,0.E0,0.E0));
#287=DIRECTION('',(0.E0,1.E0,0.E0));
#288=AXIS2_PLACEMENT_3D('',#285,#286,#287);
#290=DIRECTION('',(0.E0,-1.E0,0.E0));
#291=VECTOR('',#290,3.930559893123E0);
#292=CARTESIAN_POINT('',(0.E0,2.1E1,4.6E0));
#293=LINE('',#292,#291);
#294=CARTESIAN_POINT('',(0.E0,1.706944010688E1,-4.E-1));
#295=DIRECTION('',(1.E0,0.E0,0.E0));
#296=DIRECTION('',(0.E0,0.E0,1.E0));
#297=AXIS2_PLACEMENT_3D('',#294,#295,#296);
#299=DIRECTION('',(0.E0,-9.743911956946E-1,-2.248595066988E-1));
#300=VECTOR('',#299,5.703635615027E0);
#301=CARTESIAN_POINT('',(0.E0,1.594514257338E1,4.471955978473E0));
#302=LINE('',#301,#300);
#303=CARTESIAN_POINT('',(0.E0,1.05E1,2.702243689841E0));
#304=DIRECTION('',(1.E0,0.E0,0.E0));
#305=DIRECTION('',(0.E0,-2.248595066988E-1,9.743911956946E-1));
#306=AXIS2_PLACEMENT_3D('',#303,#304,#305);
#308=DIRECTION('',(0.E0,0.E0,-1.E0));
#309=VECTOR('',#308,6.022436898413E-1);
#310=CARTESIAN_POINT('',(0.E0,1.E1,2.702243689841E0));
#311=LINE('',#310,#309);
#312=CARTESIAN_POINT('',(0.E0,1.05E1,2.1E0));
#313=DIRECTION('',(1.E0,0.E0,0.E0));
#314=DIRECTION('',(0.E0,-1.E0,0.E0));
#315=AXIS2_PLACEMENT_3D('',#312,#313,#314);
#317=DIRECTION('',(0.E0,1.E0,0.E0));
#318=VECTOR('',#317,1.125E1);
#319=CARTESIAN_POINT('',(0.E0,1.05E1,1.6E0));
#320=LINE('',#319,#318);
#321=CARTESIAN_POINT('',(0.E0,2.175E1,1.85E0));
#322=DIRECTION('',(1.E0,0.E0,0.E0));
#323=DIRECTION('',(0.E0,0.E0,-1.E0));
#324=AXIS2_PLACEMENT_3D('',#321,#322,#323);
#326=CARTESIAN_POINT('',(0.E0,3.025E1,2.75E0));
#327=DIRECTION('',(1.E0,0.E0,0.E0));
#328=DIRECTION('',(0.E0,0.E0,1.E0));
#329=AXIS2_PLACEMENT_3D('',#326,#327,#328);
#331=DIRECTION('',(0.E0,0.E0,-1.E0));
#332=VECTOR('',#331,1.45E0);
#333=CARTESIAN_POINT('',(0.E0,3.E1,2.75E0));
#334=LINE('',#333,#332);
#335=CARTESIAN_POINT('',(0.E0,2.95E1,1.3E0));
#336=DIRECTION('',(-1.E0,0.E0,0.E0));
#337=DIRECTION('',(0.E0,1.E0,0.E0));
#338=AXIS2_PLACEMENT_3D('',#335,#336,#337);
#340=DIRECTION('',(0.E0,-1.E0,0.E0));
#341=VECTOR('',#340,2.2625E1);
#342=CARTESIAN_POINT('',(0.E0,2.95E1,8.E-1));
#343=LINE('',#342,#341);
#344=CARTESIAN_POINT('',(0.E0,6.875E0,-7.2E0));
#345=DIRECTION('',(1.E0,0.E0,0.E0));
#346=DIRECTION('',(0.E0,0.E0,1.E0));
#347=AXIS2_PLACEMENT_3D('',#344,#345,#346);
#349=DIRECTION('',(0.E0,-9.922178988327E-1,-1.245136186770E-1));
#350=VECTOR('',#349,5.925E0);
#351=CARTESIAN_POINT('',(0.E0,5.878891050584E0,7.377431906615E-1));
#352=LINE('',#351,#350);
#353=DIRECTION('',(0.E0,9.922178988327E-1,-1.245136186770E-1));
#354=VECTOR('',#353,5.925E0);
#355=CARTESIAN_POINT('',(0.E0,0.E0,0.E0));
#356=LINE('',#355,#354);
#357=CARTESIAN_POINT('',(0.E0,6.875E0,7.2E0));
#358=DIRECTION('',(1.E0,0.E0,0.E0));
#359=DIRECTION('',(0.E0,-1.245136186770E-1,-9.922178988327E-1));
#360=AXIS2_PLACEMENT_3D('',#357,#358,#359);
#362=DIRECTION('',(0.E0,1.E0,0.E0));
#363=VECTOR('',#362,2.2625E1);
#364=CARTESIAN_POINT('',(0.E0,6.875E0,-8.E-1));
#365=LINE('',#364,#363);
#366=CARTESIAN_POINT('',(0.E0,2.95E1,-1.3E0));
#367=DIRECTION('',(-1.E0,0.E0,0.E0));
#368=DIRECTION('',(0.E0,0.E0,1.E0));
#369=AXIS2_PLACEMENT_3D('',#366,#367,#368);
#371=DIRECTION('',(0.E0,0.E0,-1.E0));
#372=VECTOR('',#371,1.45E0);
#373=CARTESIAN_POINT('',(0.E0,3.E1,-1.3E0));
#374=LINE('',#373,#372);
#375=CARTESIAN_POINT('',(0.E0,3.025E1,-2.75E0));
#376=DIRECTION('',(1.E0,0.E0,0.E0));
#377=DIRECTION('',(0.E0,-1.E0,0.E0));
#378=AXIS2_PLACEMENT_3D('',#375,#376,#377);
#380=DIRECTION('',(0.E0,1.E0,0.E0));
#381=VECTOR('',#380,5.75E0);
#382=CARTESIAN_POINT('',(0.E0,3.025E1,-3.E0));
#383=LINE('',#382,#381);
#384=DIRECTION('',(0.E0,0.E0,-1.E0));
#385=VECTOR('',#384,3.E0);
#386=CARTESIAN_POINT('',(0.E0,3.6E1,-3.E0));
#387=LINE('',#386,#385);
#388=DIRECTION('',(0.E0,-1.E0,0.E0));
#389=VECTOR('',#388,5.75E0);
#390=CARTESIAN_POINT('',(0.E0,3.6E1,-6.E0));
#391=LINE('',#390,#389);
#392=CARTESIAN_POINT('',(0.E0,3.025E1,-6.25E0));
#393=DIRECTION('',(1.E0,0.E0,0.E0));
#394=DIRECTION('',(0.E0,0.E0,1.E0));
#395=AXIS2_PLACEMENT_3D('',#392,#393,#394);
#397=DIRECTION('',(0.E0,0.E0,-1.E0));
#398=VECTOR('',#397,1.55E0);
#399=CARTESIAN_POINT('',(0.E0,3.E1,-6.25E0));
#400=LINE('',#399,#398);
#401=CARTESIAN_POINT('',(0.E0,2.95E1,-7.8E0));
#402=DIRECTION('',(-1.E0,0.E0,0.E0));
#403=DIRECTION('',(0.E0,1.E0,-3.552713678800E-14));
#404=AXIS2_PLACEMENT_3D('',#401,#402,#403);
#406=DIRECTION('',(0.E0,-1.E0,0.E0));
#407=VECTOR('',#406,1.85E1);
#408=CARTESIAN_POINT('',(0.E0,2.95E1,-8.3E0));
#409=LINE('',#408,#407);
#410=CARTESIAN_POINT('',(0.E0,1.1E1,-3.E-1));
#411=DIRECTION('',(-1.E0,0.E0,0.E0));
#412=DIRECTION('',(0.E0,0.E0,-1.E0));
#413=AXIS2_PLACEMENT_3D('',#410,#411,#412);
#415=DIRECTION('',(0.E0,-8.660254037844E-1,5.E-1));
#416=VECTOR('',#415,1.612477651700E0);
#417=CARTESIAN_POINT('',(0.E0,7.E0,-7.228203230276E0));
#418=LINE('',#417,#416);
#419=CARTESIAN_POINT('',(0.E0,5.353553390593E0,-6.854977106318E0));
#420=DIRECTION('',(1.E0,0.E0,0.E0));
#421=DIRECTION('',(0.E0,5.E-1,8.660254037844E-1));
#422=AXIS2_PLACEMENT_3D('',#419,#420,#421);
#424=DIRECTION('',(0.E0,7.071067811865E-1,-7.071067811865E-1));
#425=VECTOR('',#424,8.444365081389E-1);
#426=CARTESIAN_POINT('',(0.E0,5.E0,-7.208530496911E0));
#427=LINE('',#426,#425);
#428=CARTESIAN_POINT('',(0.E0,4.89E0,-8.512744059284E0));
#429=DIRECTION('',(-1.E0,0.E0,0.E0));
#430=DIRECTION('',(0.E0,7.071067811865E-1,7.071067811866E-1));
#431=AXIS2_PLACEMENT_3D('',#428,#429,#430);
#433=DIRECTION('',(0.E0,0.E0,-1.E0));
#434=VECTOR('',#433,1.148725594072E1);
#435=CARTESIAN_POINT('',(0.E0,5.89E0,-8.512744059284E0));
#436=LINE('',#435,#434);
#437=DIRECTION('',(0.E0,-1.E0,0.E0));
#438=VECTOR('',#437,1.339E1);
#439=CARTESIAN_POINT('',(0.E0,5.89E0,-2.E1));
#440=LINE('',#439,#438);
#441=DIRECTION('',(0.E0,0.E0,1.E0));
#442=VECTOR('',#441,2.E1);
#443=CARTESIAN_POINT('',(0.E0,-7.5E0,-2.E1));
#444=LINE('',#443,#442);
#445=DIRECTION('',(0.E0,0.E0,1.E0));
#446=VECTOR('',#445,2.E1);
#447=CARTESIAN_POINT('',(0.E0,-7.5E0,0.E0));
#448=LINE('',#447,#446);
#449=DIRECTION('',(0.E0,1.E0,0.E0));
#450=VECTOR('',#449,1.339E1);
#451=CARTESIAN_POINT('',(0.E0,-7.5E0,2.E1));
#452=LINE('',#451,#450);
#453=DIRECTION('',(0.E0,0.E0,-1.E0));
#454=VECTOR('',#453,1.148725594072E1);
#455=CARTESIAN_POINT('',(0.E0,5.89E0,2.E1));
#456=LINE('',#455,#454);
#457=CARTESIAN_POINT('',(0.E0,4.89E0,8.512744059284E0));
#458=DIRECTION('',(-1.E0,0.E0,0.E0));
#459=DIRECTION('',(0.E0,1.E0,0.E0));
#460=AXIS2_PLACEMENT_3D('',#457,#458,#459);
#462=DIRECTION('',(0.E0,-7.071067811865E-1,-7.071067811865E-1));
#463=VECTOR('',#462,8.444365081390E-1);
#464=CARTESIAN_POINT('',(0.E0,5.597106781187E0,7.805637278098E0));
#465=LINE('',#464,#463);
#466=CARTESIAN_POINT('',(0.E0,5.353553390593E0,6.854977106318E0));
#467=DIRECTION('',(1.E0,0.E0,0.E0));
#468=DIRECTION('',(0.E0,-7.071067811865E-1,7.071067811865E-1));
#469=AXIS2_PLACEMENT_3D('',#466,#467,#468);
#471=DIRECTION('',(0.E0,8.660254037844E-1,5.E-1));
#472=VECTOR('',#471,1.612477651700E0);
#473=CARTESIAN_POINT('',(0.E0,5.603553390593E0,6.421964404426E0));
#474=LINE('',#473,#472);
#475=CARTESIAN_POINT('',(0.E0,1.1E1,3.E-1));
#476=DIRECTION('',(-1.E0,0.E0,0.E0));
#477=DIRECTION('',(0.E0,-5.E-1,8.660254037844E-1));
#478=AXIS2_PLACEMENT_3D('',#475,#476,#477);
#480=DIRECTION('',(0.E0,1.E0,0.E0));
#481=VECTOR('',#480,1.85E1);
#482=CARTESIAN_POINT('',(0.E0,1.1E1,8.3E0));
#483=LINE('',#482,#481);
#484=CARTESIAN_POINT('',(0.E0,2.95E1,7.8E0));
#485=DIRECTION('',(-1.E0,0.E0,0.E0));
#486=DIRECTION('',(0.E0,-6.394884621841E-14,1.E0));
#487=AXIS2_PLACEMENT_3D('',#484,#485,#486);
#489=DIRECTION('',(0.E0,0.E0,-1.E0));
#490=VECTOR('',#489,1.55E0);
#491=CARTESIAN_POINT('',(0.E0,3.E1,7.8E0));
#492=LINE('',#491,#490);
#493=CARTESIAN_POINT('',(0.E0,3.025E1,6.25E0));
#494=DIRECTION('',(1.E0,0.E0,0.E0));
#495=DIRECTION('',(0.E0,-1.E0,0.E0));
#496=AXIS2_PLACEMENT_3D('',#493,#494,#495);
#498=DIRECTION('',(0.E0,1.E0,0.E0));
#499=VECTOR('',#498,5.75E0);
#500=CARTESIAN_POINT('',(0.E0,3.025E1,6.E0));
#501=LINE('',#500,#499);
#502=DIRECTION('',(0.E0,0.E0,-1.E0));
#503=VECTOR('',#502,3.E0);
#504=CARTESIAN_POINT('',(0.E0,3.6E1,6.E0));
#505=LINE('',#504,#503);
#506=DIRECTION('',(0.E0,-1.E0,0.E0));
#507=VECTOR('',#506,5.75E0);
#508=CARTESIAN_POINT('',(0.E0,3.6E1,3.E0));
#509=LINE('',#508,#507);
#510=CARTESIAN_POINT('',(0.E0,2.1E1,-3.6E0));
#511=DIRECTION('',(1.E0,0.E0,0.E0));
#512=DIRECTION('',(0.E0,0.E0,-1.E0));
#513=AXIS2_PLACEMENT_3D('',#510,#511,#512);
#515=DIRECTION('',(0.E0,0.E0,1.E0));
#516=VECTOR('',#515,1.75E0);
#517=CARTESIAN_POINT('',(0.E0,2.2E1,-3.6E0));
#518=LINE('',#517,#516);
#519=CARTESIAN_POINT('',(0.E0,2.175E1,-1.85E0));
#520=DIRECTION('',(1.E0,0.E0,0.E0));
#521=DIRECTION('',(0.E0,1.E0,0.E0));
#522=AXIS2_PLACEMENT_3D('',#519,#520,#521);
#524=DIRECTION('',(0.E0,-1.E0,0.E0));
#525=VECTOR('',#524,1.125E1);
#526=CARTESIAN_POINT('',(0.E0,2.175E1,-1.6E0));
#527=LINE('',#526,#525);
#528=CARTESIAN_POINT('',(0.E0,1.05E1,-2.1E0));
#529=DIRECTION('',(1.E0,0.E0,0.E0));
#530=DIRECTION('',(0.E0,0.E0,1.E0));
#531=AXIS2_PLACEMENT_3D('',#528,#529,#530);
#533=DIRECTION('',(0.E0,0.E0,-1.E0));
#534=VECTOR('',#533,6.022436898413E-1);
#535=CARTESIAN_POINT('',(0.E0,1.E1,-2.1E0));
#536=LINE('',#535,#534);
#537=CARTESIAN_POINT('',(0.E0,1.05E1,-2.702243689841E0));
#538=DIRECTION('',(1.E0,0.E0,0.E0));
#539=DIRECTION('',(0.E0,-1.E0,0.E0));
#540=AXIS2_PLACEMENT_3D('',#537,#538,#539);
#542=DIRECTION('',(0.E0,9.743911956946E-1,-2.248595066988E-1));
#543=VECTOR('',#542,5.703635615027E0);
#544=CARTESIAN_POINT('',(0.E0,1.038757024665E1,-3.189439287689E0));
#545=LINE('',#544,#543);
#546=CARTESIAN_POINT('',(0.E0,1.706944010688E1,4.E-1));
#547=DIRECTION('',(1.E0,0.E0,0.E0));
#548=DIRECTION('',(0.E0,-2.248595066988E-1,-9.743911956946E-1));
#549=AXIS2_PLACEMENT_3D('',#546,#547,#548);
#551=DIRECTION('',(0.E0,1.E0,0.E0));
#552=VECTOR('',#551,3.930559893123E0);
#553=CARTESIAN_POINT('',(0.E0,1.706944010688E1,-4.6E0));
#554=LINE('',#553,#552);
#555=CARTESIAN_POINT('',(0.E0,2.2E1,3.6E0));
#556=CARTESIAN_POINT('',(0.E0,2.2E1,1.85E0));
#557=VERTEX_POINT('',#555);
#558=VERTEX_POINT('',#556);
#559=CARTESIAN_POINT('',(0.E0,2.175E1,1.6E0));
#560=VERTEX_POINT('',#559);
#561=CARTESIAN_POINT('',(0.E0,1.05E1,1.6E0));
#562=VERTEX_POINT('',#561);
#563=CARTESIAN_POINT('',(0.E0,1.E1,2.1E0));
#564=VERTEX_POINT('',#563);
#565=CARTESIAN_POINT('',(0.E0,1.E1,2.702243689841E0));
#566=VERTEX_POINT('',#565);
#567=CARTESIAN_POINT('',(0.E0,1.038757024665E1,3.189439287689E0));
#568=VERTEX_POINT('',#567);
#569=CARTESIAN_POINT('',(0.E0,1.594514257338E1,4.471955978473E0));
#570=VERTEX_POINT('',#569);
#571=CARTESIAN_POINT('',(0.E0,1.706944010688E1,4.6E0));
#572=VERTEX_POINT('',#571);
#573=CARTESIAN_POINT('',(0.E0,2.1E1,4.6E0));
#574=VERTEX_POINT('',#573);
#575=CARTESIAN_POINT('',(0.E0,3.E1,2.75E0));
#576=CARTESIAN_POINT('',(0.E0,3.025E1,3.E0));
#577=VERTEX_POINT('',#575);
#578=VERTEX_POINT('',#576);
#579=CARTESIAN_POINT('',(0.E0,3.6E1,3.E0));
#580=VERTEX_POINT('',#579);
#581=CARTESIAN_POINT('',(0.E0,3.6E1,6.E0));
#582=VERTEX_POINT('',#581);
#583=CARTESIAN_POINT('',(0.E0,3.025E1,6.E0));
#584=VERTEX_POINT('',#583);
#585=CARTESIAN_POINT('',(0.E0,3.E1,6.25E0));
#586=VERTEX_POINT('',#585);
#587=CARTESIAN_POINT('',(0.E0,3.E1,7.8E0));
#588=VERTEX_POINT('',#587);
#589=CARTESIAN_POINT('',(0.E0,2.95E1,8.3E0));
#590=VERTEX_POINT('',#589);
#591=CARTESIAN_POINT('',(0.E0,1.1E1,8.3E0));
#592=VERTEX_POINT('',#591);
#593=CARTESIAN_POINT('',(0.E0,7.E0,7.228203230276E0));
#594=VERTEX_POINT('',#593);
#595=CARTESIAN_POINT('',(0.E0,5.603553390593E0,6.421964404426E0));
#596=VERTEX_POINT('',#595);
#597=CARTESIAN_POINT('',(0.E0,5.E0,7.208530496911E0));
#598=VERTEX_POINT('',#597);
#599=CARTESIAN_POINT('',(0.E0,5.597106781187E0,7.805637278098E0));
#600=VERTEX_POINT('',#599);
#601=CARTESIAN_POINT('',(0.E0,5.89E0,8.512744059284E0));
#602=VERTEX_POINT('',#601);
#603=CARTESIAN_POINT('',(0.E0,5.89E0,2.E1));
#604=VERTEX_POINT('',#603);
#605=CARTESIAN_POINT('',(0.E0,-7.5E0,2.E1));
#606=VERTEX_POINT('',#605);
#607=CARTESIAN_POINT('',(0.E0,-7.5E0,0.E0));
#608=VERTEX_POINT('',#607);
#609=CARTESIAN_POINT('',(0.E0,-7.5E0,-2.E1));
#610=VERTEX_POINT('',#609);
#611=CARTESIAN_POINT('',(0.E0,5.89E0,-2.E1));
#612=VERTEX_POINT('',#611);
#613=CARTESIAN_POINT('',(0.E0,5.89E0,-8.512744059284E0));
#614=VERTEX_POINT('',#613);
#615=CARTESIAN_POINT('',(0.E0,5.597106781187E0,-7.805637278098E0));
#616=VERTEX_POINT('',#615);
#617=CARTESIAN_POINT('',(0.E0,5.E0,-7.208530496911E0));
#618=VERTEX_POINT('',#617);
#619=CARTESIAN_POINT('',(0.E0,5.603553390593E0,-6.421964404426E0));
#620=VERTEX_POINT('',#619);
#621=CARTESIAN_POINT('',(0.E0,7.E0,-7.228203230276E0));
#622=VERTEX_POINT('',#621);
#623=CARTESIAN_POINT('',(0.E0,1.1E1,-8.3E0));
#624=VERTEX_POINT('',#623);
#625=CARTESIAN_POINT('',(0.E0,2.95E1,-8.3E0));
#626=VERTEX_POINT('',#625);
#627=CARTESIAN_POINT('',(0.E0,3.E1,-7.8E0));
#628=VERTEX_POINT('',#627);
#629=CARTESIAN_POINT('',(0.E0,3.E1,-6.25E0));
#630=VERTEX_POINT('',#629);
#631=CARTESIAN_POINT('',(0.E0,3.025E1,-6.E0));
#632=VERTEX_POINT('',#631);
#633=CARTESIAN_POINT('',(0.E0,3.6E1,-6.E0));
#634=VERTEX_POINT('',#633);
#635=CARTESIAN_POINT('',(0.E0,3.6E1,-3.E0));
#636=VERTEX_POINT('',#635);
#637=CARTESIAN_POINT('',(0.E0,3.025E1,-3.E0));
#638=VERTEX_POINT('',#637);
#639=CARTESIAN_POINT('',(0.E0,3.E1,-2.75E0));
#640=VERTEX_POINT('',#639);
#641=CARTESIAN_POINT('',(0.E0,3.E1,-1.3E0));
#642=VERTEX_POINT('',#641);
#643=CARTESIAN_POINT('',(0.E0,2.95E1,-8.E-1));
#644=VERTEX_POINT('',#643);
#645=CARTESIAN_POINT('',(0.E0,6.875E0,-8.E-1));
#646=VERTEX_POINT('',#645);
#647=CARTESIAN_POINT('',(0.E0,5.878891050584E0,-7.377431906615E-1));
#648=VERTEX_POINT('',#647);
#649=CARTESIAN_POINT('',(0.E0,0.E0,0.E0));
#650=VERTEX_POINT('',#649);
#651=CARTESIAN_POINT('',(0.E0,5.878891050584E0,7.377431906615E-1));
#652=VERTEX_POINT('',#651);
#653=CARTESIAN_POINT('',(0.E0,6.875E0,8.E-1));
#654=VERTEX_POINT('',#653);
#655=CARTESIAN_POINT('',(0.E0,2.95E1,8.E-1));
#656=VERTEX_POINT('',#655);
#657=CARTESIAN_POINT('',(0.E0,3.E1,1.3E0));
#658=VERTEX_POINT('',#657);
#659=CARTESIAN_POINT('',(0.E0,2.2E1,-3.6E0));
#660=CARTESIAN_POINT('',(0.E0,2.1E1,-4.6E0));
#661=VERTEX_POINT('',#659);
#662=VERTEX_POINT('',#660);
#663=CARTESIAN_POINT('',(0.E0,1.706944010688E1,-4.6E0));
#664=VERTEX_POINT('',#663);
#665=CARTESIAN_POINT('',(0.E0,1.594514257338E1,-4.471955978473E0));
#666=VERTEX_POINT('',#665);
#667=CARTESIAN_POINT('',(0.E0,1.038757024665E1,-3.189439287689E0));
#668=VERTEX_POINT('',#667);
#669=CARTESIAN_POINT('',(0.E0,1.E1,-2.702243689841E0));
#670=VERTEX_POINT('',#669);
#671=CARTESIAN_POINT('',(0.E0,1.E1,-2.1E0));
#672=VERTEX_POINT('',#671);
#673=CARTESIAN_POINT('',(0.E0,1.05E1,-1.6E0));
#674=VERTEX_POINT('',#673);
#675=CARTESIAN_POINT('',(0.E0,2.175E1,-1.6E0));
#676=VERTEX_POINT('',#675);
#677=CARTESIAN_POINT('',(0.E0,2.2E1,-1.85E0));
#678=VERTEX_POINT('',#677);
#679=CARTESIAN_POINT('',(0.E0,0.E0,0.E0));
#680=DIRECTION('',(1.E0,0.E0,0.E0));
#681=DIRECTION('',(0.E0,0.E0,-1.E0));
#682=AXIS2_PLACEMENT_3D('',#679,#680,#681);
#683=PLANE('',#682);
#685=ORIENTED_EDGE('',*,*,#684,.T.);
#687=ORIENTED_EDGE('',*,*,#686,.T.);
#689=ORIENTED_EDGE('',*,*,#688,.T.);
#691=ORIENTED_EDGE('',*,*,#690,.T.);
#693=ORIENTED_EDGE('',*,*,#692,.T.);
#695=ORIENTED_EDGE('',*,*,#694,.T.);
#697=ORIENTED_EDGE('',*,*,#696,.T.);
#699=ORIENTED_EDGE('',*,*,#698,.T.);
#701=ORIENTED_EDGE('',*,*,#700,.T.);
#703=ORIENTED_EDGE('',*,*,#702,.T.);
#705=ORIENTED_EDGE('',*,*,#704,.T.);
#707=ORIENTED_EDGE('',*,*,#706,.T.);
#709=ORIENTED_EDGE('',*,*,#708,.T.);
#711=ORIENTED_EDGE('',*,*,#710,.T.);
#713=ORIENTED_EDGE('',*,*,#712,.T.);
#715=ORIENTED_EDGE('',*,*,#714,.T.);
#717=ORIENTED_EDGE('',*,*,#716,.T.);
#719=ORIENTED_EDGE('',*,*,#718,.T.);
#721=ORIENTED_EDGE('',*,*,#720,.T.);
#723=ORIENTED_EDGE('',*,*,#722,.T.);
#725=ORIENTED_EDGE('',*,*,#724,.T.);
#727=ORIENTED_EDGE('',*,*,#726,.T.);
#729=ORIENTED_EDGE('',*,*,#728,.T.);
#731=ORIENTED_EDGE('',*,*,#730,.T.);
#733=ORIENTED_EDGE('',*,*,#732,.T.);
#735=ORIENTED_EDGE('',*,*,#734,.T.);
#737=ORIENTED_EDGE('',*,*,#736,.T.);
#739=ORIENTED_EDGE('',*,*,#738,.T.);
#741=ORIENTED_EDGE('',*,*,#740,.T.);
#743=ORIENTED_EDGE('',*,*,#742,.T.);
#745=ORIENTED_EDGE('',*,*,#744,.T.);
#747=ORIENTED_EDGE('',*,*,#746,.T.);
#749=ORIENTED_EDGE('',*,*,#748,.T.);
#751=ORIENTED_EDGE('',*,*,#750,.T.);
#753=ORIENTED_EDGE('',*,*,#752,.T.);
#755=ORIENTED_EDGE('',*,*,#754,.T.);
#757=ORIENTED_EDGE('',*,*,#756,.T.);
#759=ORIENTED_EDGE('',*,*,#758,.T.);
#761=ORIENTED_EDGE('',*,*,#760,.T.);
#763=ORIENTED_EDGE('',*,*,#762,.T.);
#765=ORIENTED_EDGE('',*,*,#764,.T.);
#767=ORIENTED_EDGE('',*,*,#766,.T.);
#768=EDGE_LOOP('',(#685,#687,#689,#691,#693,#695,#697,#699,#701,#703,#705,#707,
#709,#711,#713,#715,#717,#719,#721,#723,#725,#727,#729,#731,#733,#735,#737,#739,
#741,#743,#745,#747,#749,#751,#753,#755,#757,#759,#761,#763,#765,#767));
#769=FACE_OUTER_BOUND('',#768,.F.);
#771=ORIENTED_EDGE('',*,*,#770,.T.);
#773=ORIENTED_EDGE('',*,*,#772,.T.);
#775=ORIENTED_EDGE('',*,*,#774,.T.);
#777=ORIENTED_EDGE('',*,*,#776,.T.);
#779=ORIENTED_EDGE('',*,*,#778,.T.);
#781=ORIENTED_EDGE('',*,*,#780,.T.);
#783=ORIENTED_EDGE('',*,*,#782,.T.);
#785=ORIENTED_EDGE('',*,*,#784,.T.);
#787=ORIENTED_EDGE('',*,*,#786,.T.);
#789=ORIENTED_EDGE('',*,*,#788,.T.);
#790=EDGE_LOOP('',(#771,#773,#775,#777,#779,#781,#783,#785,#787,#789));
#791=FACE_BOUND('',#790,.F.);
#793=ORIENTED_EDGE('',*,*,#792,.T.);
#795=ORIENTED_EDGE('',*,*,#794,.T.);
#797=ORIENTED_EDGE('',*,*,#796,.T.);
#799=ORIENTED_EDGE('',*,*,#798,.T.);
#801=ORIENTED_EDGE('',*,*,#800,.T.);
#803=ORIENTED_EDGE('',*,*,#802,.T.);
#805=ORIENTED_EDGE('',*,*,#804,.T.);
#807=ORIENTED_EDGE('',*,*,#806,.T.);
#809=ORIENTED_EDGE('',*,*,#808,.T.);
#811=ORIENTED_EDGE('',*,*,#810,.T.);
#812=EDGE_LOOP('',(#793,#795,#797,#799,#801,#803,#805,#807,#809,#811));
#813=FACE_BOUND('',#812,.F.);
#814=ADVANCED_FACE('',(#769,#791,#813),#683,.T.);
#818=DIMENSIONAL_EXPONENTS(0.E0,0.E0,0.E0,0.E0,0.E0,0.E0,0.E0);
#820=PLANE_ANGLE_MEASURE_WITH_UNIT(PLANE_ANGLE_MEASURE(1.745329251994E-2),#819);
#821=(CONVERSION_BASED_UNIT('DEGREE',#820)NAMED_UNIT(*)PLANE_ANGLE_UNIT());
#823=UNCERTAINTY_MEASURE_WITH_UNIT(LENGTH_MEASURE(8.E-3),#817,'closure',
'Maximum model space distance between geometric entities at asserted connectivities');
#824=(GEOMETRIC_REPRESENTATION_CONTEXT(3)GLOBAL_UNCERTAINTY_ASSIGNED_CONTEXT((
#823))GLOBAL_UNIT_ASSIGNED_CONTEXT((#817,#821,#822))REPRESENTATION_CONTEXT
('ID1','3'));
#826=APPLICATION_CONTEXT(
'CONFIGURATION CONTROLLED 3D DESIGNS OF MECHANICAL PARTS AND ASSEMBLIES');
#827=APPLICATION_PROTOCOL_DEFINITION('international standard',
'config_control_design',1994,#826);
#828=DESIGN_CONTEXT('',#826,'design');
#829=MECHANICAL_CONTEXT('',#826,'mechanical');
#830=PRODUCT('GNHGHGHGH','GNHGHGHGH','NOT SPECIFIED',(#829));
#831=PRODUCT_DEFINITION_FORMATION_WITH_SPECIFIED_SOURCE('1','LAST_VERSION',#830,
.MADE.);
#835=PRODUCT_CATEGORY('part','');
#836=PRODUCT_RELATED_PRODUCT_CATEGORY('detail','',(#830));
#837=PRODUCT_CATEGORY_RELATIONSHIP('','',#835,#836);
#838=SECURITY_CLASSIFICATION_LEVEL('unclassified');
#839=SECURITY_CLASSIFICATION('','',#838);
#840=CC_DESIGN_SECURITY_CLASSIFICATION(#839,(#831));
#841=APPROVAL_STATUS('approved');
#842=APPROVAL(#841,'');
#843=CC_DESIGN_APPROVAL(#842,(#839,#831,#832));
#844=CALENDAR_DATE(125,19,11);
#845=COORDINATED_UNIVERSAL_TIME_OFFSET(0,0,.BEHIND.);
#846=LOCAL_TIME(15,44,5.2E1,#845);
#847=DATE_AND_TIME(#844,#846);
#848=APPROVAL_DATE_TIME(#847,#842);
#849=DATE_TIME_ROLE('creation_date');
#850=CC_DESIGN_DATE_AND_TIME_ASSIGNMENT(#847,#849,(#832));
#851=DATE_TIME_ROLE('classification_date');
#852=CC_DESIGN_DATE_AND_TIME_ASSIGNMENT(#847,#851,(#839));
#853=PERSON('UNSPECIFIED','UNSPECIFIED',$,$,$,$);
#854=ORGANIZATION('UNSPECIFIED','UNSPECIFIED','UNSPECIFIED');
#855=PERSON_AND_ORGANIZATION(#853,#854);
#856=APPROVAL_ROLE('approver');
#857=APPROVAL_PERSON_ORGANIZATION(#855,#842,#856);
#858=PERSON_AND_ORGANIZATION_ROLE('creator');
#859=CC_DESIGN_PERSON_AND_ORGANIZATION_ASSIGNMENT(#855,#858,(#831,#832));
#860=PERSON_AND_ORGANIZATION_ROLE('design_supplier');
#861=CC_DESIGN_PERSON_AND_ORGANIZATION_ASSIGNMENT(#855,#860,(#831));
#862=PERSON_AND_ORGANIZATION_ROLE('classification_officer');
#863=CC_DESIGN_PERSON_AND_ORGANIZATION_ASSIGNMENT(#855,#862,(#839));
#864=PERSON_AND_ORGANIZATION_ROLE('design_owner');
#865=CC_DESIGN_PERSON_AND_ORGANIZATION_ASSIGNMENT(#855,#864,(#830));
#25=CIRCLE('',#24,1.E0);
#34=CIRCLE('',#33,5.E-1);
#43=CIRCLE('',#42,8.E0);
#52=CIRCLE('',#51,5.E-1);
#61=CIRCLE('',#60,2.5E-1);
#78=CIRCLE('',#77,2.5E-1);
#87=CIRCLE('',#86,5.E-1);
#96=CIRCLE('',#95,8.E0);
#105=CIRCLE('',#104,1.E0);
#114=CIRCLE('',#113,5.E0);
#123=CIRCLE('',#122,5.E-1);
#132=CIRCLE('',#131,5.E-1);
#141=CIRCLE('',#140,2.5E-1);
#211=EDGE_CURVE('',#145,#144,#4,.T.);
#213=EDGE_CURVE('',#144,#173,#8,.T.);
#215=EDGE_CURVE('',#173,#171,#12,.T.);
#217=EDGE_CURVE('',#171,#169,#16,.T.);
#219=EDGE_CURVE('',#169,#167,#20,.T.);
#221=EDGE_CURVE('',#167,#165,#25,.T.);
#223=EDGE_CURVE('',#165,#163,#29,.T.);
#225=EDGE_CURVE('',#163,#161,#34,.T.);
#227=EDGE_CURVE('',#161,#159,#38,.T.);
#229=EDGE_CURVE('',#159,#157,#43,.T.);
#231=EDGE_CURVE('',#157,#156,#47,.T.);
#233=EDGE_CURVE('',#156,#153,#52,.T.);
#235=EDGE_CURVE('',#153,#152,#56,.T.);
#237=EDGE_CURVE('',#152,#205,#61,.T.);
#239=EDGE_CURVE('',#205,#203,#65,.T.);
#241=EDGE_CURVE('',#203,#201,#69,.T.);
#243=EDGE_CURVE('',#201,#199,#73,.T.);
#245=EDGE_CURVE('',#199,#197,#78,.T.);
#247=EDGE_CURVE('',#197,#196,#82,.T.);
#249=EDGE_CURVE('',#196,#149,#87,.T.);
#251=EDGE_CURVE('',#149,#147,#91,.T.);
#253=EDGE_CURVE('',#147,#145,#96,.T.);
#257=EDGE_CURVE('',#177,#176,#100,.T.);
#259=EDGE_CURVE('',#176,#193,#105,.T.);
#261=EDGE_CURVE('',#193,#191,#109,.T.);
#263=EDGE_CURVE('',#191,#189,#114,.T.);
#265=EDGE_CURVE('',#189,#187,#118,.T.);
#267=EDGE_CURVE('',#187,#185,#123,.T.);
#269=EDGE_CURVE('',#185,#183,#127,.T.);
#271=EDGE_CURVE('',#183,#181,#132,.T.);
#273=EDGE_CURVE('',#181,#179,#136,.T.);
#275=EDGE_CURVE('',#179,#177,#141,.T.);
#280=OPEN_SHELL('',(#279));
#289=CIRCLE('',#288,1.E0);
#298=CIRCLE('',#297,5.E0);
#307=CIRCLE('',#306,5.E-1);
#316=CIRCLE('',#315,5.E-1);
#325=CIRCLE('',#324,2.5E-1);
#330=CIRCLE('',#329,2.5E-1);
#339=CIRCLE('',#338,5.E-1);
#348=CIRCLE('',#347,8.E0);
#361=CIRCLE('',#360,8.E0);
#370=CIRCLE('',#369,5.E-1);
#379=CIRCLE('',#378,2.5E-1);
#396=CIRCLE('',#395,2.5E-1);
#405=CIRCLE('',#404,5.E-1);
#414=CIRCLE('',#413,8.E0);
#423=CIRCLE('',#422,5.E-1);
#432=CIRCLE('',#431,1.E0);
#461=CIRCLE('',#460,1.E0);
#470=CIRCLE('',#469,5.E-1);
#479=CIRCLE('',#478,8.E0);
#488=CIRCLE('',#487,5.E-1);
#497=CIRCLE('',#496,2.5E-1);
#514=CIRCLE('',#513,1.E0);
#523=CIRCLE('',#522,2.5E-1);
#532=CIRCLE('',#531,5.E-1);
#541=CIRCLE('',#540,5.E-1);
#550=CIRCLE('',#549,5.E0);
#684=EDGE_CURVE('',#578,#577,#330,.T.);
#686=EDGE_CURVE('',#577,#658,#334,.T.);
#688=EDGE_CURVE('',#658,#656,#339,.T.);
#690=EDGE_CURVE('',#656,#654,#343,.T.);
#692=EDGE_CURVE('',#654,#652,#348,.T.);
#694=EDGE_CURVE('',#652,#650,#352,.T.);
#696=EDGE_CURVE('',#650,#648,#356,.T.);
#698=EDGE_CURVE('',#648,#646,#361,.T.);
#700=EDGE_CURVE('',#646,#644,#365,.T.);
#702=EDGE_CURVE('',#644,#642,#370,.T.);
#704=EDGE_CURVE('',#642,#640,#374,.T.);
#706=EDGE_CURVE('',#640,#638,#379,.T.);
#708=EDGE_CURVE('',#638,#636,#383,.T.);
#710=EDGE_CURVE('',#636,#634,#387,.T.);
#712=EDGE_CURVE('',#634,#632,#391,.T.);
#714=EDGE_CURVE('',#632,#630,#396,.T.);
#716=EDGE_CURVE('',#630,#628,#400,.T.);
#718=EDGE_CURVE('',#628,#626,#405,.T.);
#720=EDGE_CURVE('',#626,#624,#409,.T.);
#722=EDGE_CURVE('',#624,#622,#414,.T.);
#724=EDGE_CURVE('',#622,#620,#418,.T.);
#726=EDGE_CURVE('',#620,#618,#423,.T.);
#728=EDGE_CURVE('',#618,#616,#427,.T.);
#730=EDGE_CURVE('',#616,#614,#432,.T.);
#732=EDGE_CURVE('',#614,#612,#436,.T.);
#734=EDGE_CURVE('',#612,#610,#440,.T.);
#736=EDGE_CURVE('',#610,#608,#444,.T.);
#738=EDGE_CURVE('',#608,#606,#448,.T.);
#740=EDGE_CURVE('',#606,#604,#452,.T.);
#742=EDGE_CURVE('',#604,#602,#456,.T.);
#744=EDGE_CURVE('',#602,#600,#461,.T.);
#746=EDGE_CURVE('',#600,#598,#465,.T.);
#748=EDGE_CURVE('',#598,#596,#470,.T.);
#750=EDGE_CURVE('',#596,#594,#474,.T.);
#752=EDGE_CURVE('',#594,#592,#479,.T.);
#754=EDGE_CURVE('',#592,#590,#483,.T.);
#756=EDGE_CURVE('',#590,#588,#488,.T.);
#758=EDGE_CURVE('',#588,#586,#492,.T.);
#760=EDGE_CURVE('',#586,#584,#497,.T.);
#762=EDGE_CURVE('',#584,#582,#501,.T.);
#764=EDGE_CURVE('',#582,#580,#505,.T.);
#766=EDGE_CURVE('',#580,#578,#509,.T.);
#770=EDGE_CURVE('',#558,#557,#284,.T.);
#772=EDGE_CURVE('',#557,#574,#289,.T.);
#774=EDGE_CURVE('',#574,#572,#293,.T.);
#776=EDGE_CURVE('',#572,#570,#298,.T.);
#778=EDGE_CURVE('',#570,#568,#302,.T.);
#780=EDGE_CURVE('',#568,#566,#307,.T.);
#782=EDGE_CURVE('',#566,#564,#311,.T.);
#784=EDGE_CURVE('',#564,#562,#316,.T.);
#786=EDGE_CURVE('',#562,#560,#320,.T.);
#788=EDGE_CURVE('',#560,#558,#325,.T.);
#792=EDGE_CURVE('',#662,#661,#514,.T.);
#794=EDGE_CURVE('',#661,#678,#518,.T.);
#796=EDGE_CURVE('',#678,#676,#523,.T.);
#798=EDGE_CURVE('',#676,#674,#527,.T.);
#800=EDGE_CURVE('',#674,#672,#532,.T.);
#802=EDGE_CURVE('',#672,#670,#536,.T.);
#804=EDGE_CURVE('',#670,#668,#541,.T.);
#806=EDGE_CURVE('',#668,#666,#545,.T.);
#808=EDGE_CURVE('',#666,#664,#550,.T.);
#810=EDGE_CURVE('',#664,#662,#554,.T.);
#815=OPEN_SHELL('',(#814));
#816=SHELL_BASED_SURFACE_MODEL('',(#280,#815));
#817=(LENGTH_UNIT()NAMED_UNIT(*)SI_UNIT(.MILLI.,.METRE.));
#819=(NAMED_UNIT(*)PLANE_ANGLE_UNIT()SI_UNIT($,.RADIAN.));
#822=(NAMED_UNIT(*)SI_UNIT($,.STERADIAN.)SOLID_ANGLE_UNIT());
#825=MANIFOLD_SURFACE_SHAPE_REPRESENTATION('',(#816),#824);
#832=PRODUCT_DEFINITION('design','',#831,#828);
#833=PRODUCT_DEFINITION_SHAPE('','SHAPE FOR GNHGHGHGH.',#832);
#834=SHAPE_DEFINITION_REPRESENTATION(#833,#825);
ENDSEC;
END-ISO-10303-21;
