ISO-10303-21;
HEADER;
FILE_DESCRIPTION((''),'2;1');
FILE_NAME('GNHGHGHGH','2025-11-19T15:32:51',('dilendamian'),(''),
'CREO PARAMETRIC BY PTC INC, 2025093','CREO PARAMETRIC BY PTC INC, 2025093','');
FILE_SCHEMA(('CONFIG_CONTROL_DESIGN'));
ENDSEC;
DATA;
#1=DIRECTION('',(0.E0,-9.922178988327E-1,-1.245136186770E-1));
#2=VECTOR('',#1,5.925E0);
#3=CARTESIAN_POINT('',(0.E0,5.878891050584E0,7.377431906615E-1));
#4=LINE('',#3,#2);
#5=DIRECTION('',(0.E0,-1.E0,0.E0));
#6=VECTOR('',#5,7.5E0);
#7=CARTESIAN_POINT('',(0.E0,0.E0,0.E0));
#8=LINE('',#7,#6);
#9=DIRECTION('',(0.E0,0.E0,1.E0));
#10=VECTOR('',#9,2.E1);
#11=CARTESIAN_POINT('',(0.E0,-7.5E0,0.E0));
#12=LINE('',#11,#10);
#13=DIRECTION('',(0.E0,1.E0,0.E0));
#14=VECTOR('',#13,1.339E1);
#15=CARTESIAN_POINT('',(0.E0,-7.5E0,2.E1));
#16=LINE('',#15,#14);
#17=DIRECTION('',(0.E0,0.E0,-1.E0));
#18=VECTOR('',#17,1.148725594072E1);
#19=CARTESIAN_POINT('',(0.E0,5.89E0,2.E1));
#20=LINE('',#19,#18);
#21=CARTESIAN_POINT('',(0.E0,4.89E0,8.512744059284E0));
#22=DIRECTION('',(-1.E0,0.E0,0.E0));
#23=DIRECTION('',(0.E0,1.E0,0.E0));
#24=AXIS2_PLACEMENT_3D('',#21,#22,#23);
#26=DIRECTION('',(0.E0,-7.071067811865E-1,-7.071067811865E-1));
#27=VECTOR('',#26,8.444365081390E-1);
#28=CARTESIAN_POINT('',(0.E0,5.597106781187E0,7.805637278098E0));
#29=LINE('',#28,#27);
#30=CARTESIAN_POINT('',(0.E0,5.353553390593E0,6.854977106318E0));
#31=DIRECTION('',(1.E0,0.E0,0.E0));
#32=DIRECTION('',(0.E0,-7.071067811865E-1,7.071067811865E-1));
#33=AXIS2_PLACEMENT_3D('',#30,#31,#32);
#35=DIRECTION('',(0.E0,8.660254037844E-1,5.E-1));
#36=VECTOR('',#35,1.612477651700E0);
#37=CARTESIAN_POINT('',(0.E0,5.603553390593E0,6.421964404426E0));
#38=LINE('',#37,#36);
#39=CARTESIAN_POINT('',(0.E0,1.1E1,3.E-1));
#40=DIRECTION('',(-1.E0,0.E0,0.E0));
#41=DIRECTION('',(0.E0,-5.E-1,8.660254037844E-1));
#42=AXIS2_PLACEMENT_3D('',#39,#40,#41);
#44=DIRECTION('',(0.E0,1.E0,0.E0));
#45=VECTOR('',#44,1.85E1);
#46=CARTESIAN_POINT('',(0.E0,1.1E1,8.3E0));
#47=LINE('',#46,#45);
#48=CARTESIAN_POINT('',(0.E0,2.95E1,7.8E0));
#49=DIRECTION('',(-1.E0,0.E0,0.E0));
#50=DIRECTION('',(0.E0,-2.842170943040E-14,1.E0));
#51=AXIS2_PLACEMENT_3D('',#48,#49,#50);
#53=DIRECTION('',(0.E0,0.E0,-1.E0));
#54=VECTOR('',#53,1.55E0);
#55=CARTESIAN_POINT('',(0.E0,3.E1,7.8E0));
#56=LINE('',#55,#54);
#57=CARTESIAN_POINT('',(0.E0,3.025E1,6.25E0));
#58=DIRECTION('',(1.E0,0.E0,0.E0));
#59=DIRECTION('',(0.E0,-1.E0,0.E0));
#60=AXIS2_PLACEMENT_3D('',#57,#58,#59);
#62=DIRECTION('',(0.E0,1.E0,0.E0));
#63=VECTOR('',#62,5.75E0);
#64=CARTESIAN_POINT('',(0.E0,3.025E1,6.E0));
#65=LINE('',#64,#63);
#66=DIRECTION('',(0.E0,0.E0,-1.E0));
#67=VECTOR('',#66,3.E0);
#68=CARTESIAN_POINT('',(0.E0,3.6E1,6.E0));
#69=LINE('',#68,#67);
#70=DIRECTION('',(0.E0,-1.E0,0.E0));
#71=VECTOR('',#70,5.75E0);
#72=CARTESIAN_POINT('',(0.E0,3.6E1,3.E0));
#73=LINE('',#72,#71);
#74=CARTESIAN_POINT('',(0.E0,3.025E1,2.75E0));
#75=DIRECTION('',(1.E0,0.E0,0.E0));
#76=DIRECTION('',(0.E0,0.E0,1.E0));
#77=AXIS2_PLACEMENT_3D('',#74,#75,#76);
#79=DIRECTION('',(0.E0,0.E0,-1.E0));
#80=VECTOR('',#79,1.45E0);
#81=CARTESIAN_POINT('',(0.E0,3.E1,2.75E0));
#82=LINE('',#81,#80);
#83=CARTESIAN_POINT('',(0.E0,2.95E1,1.3E0));
#84=DIRECTION('',(-1.E0,0.E0,0.E0));
#85=DIRECTION('',(0.E0,1.E0,0.E0));
#86=AXIS2_PLACEMENT_3D('',#83,#84,#85);
#88=DIRECTION('',(0.E0,-1.E0,0.E0));
#89=VECTOR('',#88,2.2625E1);
#90=CARTESIAN_POINT('',(0.E0,2.95E1,8.E-1));
#91=LINE('',#90,#89);
#92=CARTESIAN_POINT('',(0.E0,6.875E0,-7.2E0));
#93=DIRECTION('',(1.E0,0.E0,0.E0));
#94=DIRECTION('',(0.E0,0.E0,1.E0));
#95=AXIS2_PLACEMENT_3D('',#92,#93,#94);
#97=DIRECTION('',(0.E0,0.E0,1.E0));
#98=VECTOR('',#97,1.75E0);
#99=CARTESIAN_POINT('',(0.E0,2.2E1,1.85E0));
#100=LINE('',#99,#98);
#101=CARTESIAN_POINT('',(0.E0,2.1E1,3.6E0));
#102=DIRECTION('',(1.E0,0.E0,0.E0));
#103=DIRECTION('',(0.E0,1.E0,0.E0));
#104=AXIS2_PLACEMENT_3D('',#101,#102,#103);
#106=DIRECTION('',(0.E0,-1.E0,0.E0));
#107=VECTOR('',#106,3.930559893123E0);
#108=CARTESIAN_POINT('',(0.E0,2.1E1,4.6E0));
#109=LINE('',#108,#107);
#110=CARTESIAN_POINT('',(0.E0,1.706944010688E1,-4.E-1));
#111=DIRECTION('',(1.E0,0.E0,0.E0));
#112=DIRECTION('',(0.E0,0.E0,1.E0));
#113=AXIS2_PLACEMENT_3D('',#110,#111,#112);
#115=DIRECTION('',(0.E0,-9.743911956946E-1,-2.248595066988E-1));
#116=VECTOR('',#115,5.703635615027E0);
#117=CARTESIAN_POINT('',(0.E0,1.594514257338E1,4.471955978473E0));
#118=LINE('',#117,#116);
#119=CARTESIAN_POINT('',(0.E0,1.05E1,2.702243689841E0));
#120=DIRECTION('',(1.E0,0.E0,0.E0));
#121=DIRECTION('',(0.E0,-2.248595066988E-1,9.743911956946E-1));
#122=AXIS2_PLACEMENT_3D('',#119,#120,#121);
#124=DIRECTION('',(0.E0,0.E0,-1.E0));
#125=VECTOR('',#124,6.022436898413E-1);
#126=CARTESIAN_POINT('',(0.E0,1.E1,2.702243689841E0));
#127=LINE('',#126,#125);
#128=CARTESIAN_POINT('',(0.E0,1.05E1,2.1E0));
#129=DIRECTION('',(1.E0,0.E0,0.E0));
#130=DIRECTION('',(0.E0,-1.E0,0.E0));
#131=AXIS2_PLACEMENT_3D('',#128,#129,#130);
#133=DIRECTION('',(0.E0,1.E0,0.E0));
#134=VECTOR('',#133,1.125E1);
#135=CARTESIAN_POINT('',(0.E0,1.05E1,1.6E0));
#136=LINE('',#135,#134);
#137=CARTESIAN_POINT('',(0.E0,2.175E1,1.85E0));
#138=DIRECTION('',(1.E0,0.E0,0.E0));
#139=DIRECTION('',(0.E0,0.E0,-1.E0));
#140=AXIS2_PLACEMENT_3D('',#137,#138,#139);
#142=CARTESIAN_POINT('',(0.E0,0.E0,0.E0));
#143=CARTESIAN_POINT('',(0.E0,5.878891050584E0,7.377431906615E-1));
#144=VERTEX_POINT('',#142);
#145=VERTEX_POINT('',#143);
#146=CARTESIAN_POINT('',(0.E0,6.875E0,8.E-1));
#147=VERTEX_POINT('',#146);
#148=CARTESIAN_POINT('',(0.E0,2.95E1,8.E-1));
#149=VERTEX_POINT('',#148);
#150=CARTESIAN_POINT('',(0.E0,3.E1,6.25E0));
#151=CARTESIAN_POINT('',(0.E0,3.E1,7.8E0));
#152=VERTEX_POINT('',#150);
#153=VERTEX_POINT('',#151);
#154=CARTESIAN_POINT('',(0.E0,2.95E1,8.3E0));
#155=CARTESIAN_POINT('',(0.E0,1.1E1,8.3E0));
#156=VERTEX_POINT('',#154);
#157=VERTEX_POINT('',#155);
#158=CARTESIAN_POINT('',(0.E0,7.E0,7.228203230276E0));
#159=VERTEX_POINT('',#158);
#160=CARTESIAN_POINT('',(0.E0,5.603553390593E0,6.421964404426E0));
#161=VERTEX_POINT('',#160);
#162=CARTESIAN_POINT('',(0.E0,5.E0,7.208530496911E0));
#163=VERTEX_POINT('',#162);
#164=CARTESIAN_POINT('',(0.E0,5.597106781187E0,7.805637278098E0));
#165=VERTEX_POINT('',#164);
#166=CARTESIAN_POINT('',(0.E0,5.89E0,8.512744059284E0));
#167=VERTEX_POINT('',#166);
#168=CARTESIAN_POINT('',(0.E0,5.89E0,2.E1));
#169=VERTEX_POINT('',#168);
#170=CARTESIAN_POINT('',(0.E0,-7.5E0,2.E1));
#171=VERTEX_POINT('',#170);
#172=CARTESIAN_POINT('',(0.E0,-7.5E0,0.E0));
#173=VERTEX_POINT('',#172);
#174=CARTESIAN_POINT('',(0.E0,2.2E1,3.6E0));
#175=CARTESIAN_POINT('',(0.E0,2.2E1,1.85E0));
#176=VERTEX_POINT('',#174);
#177=VERTEX_POINT('',#175);
#178=CARTESIAN_POINT('',(0.E0,2.175E1,1.6E0));
#179=VERTEX_POINT('',#178);
#180=CARTESIAN_POINT('',(0.E0,1.05E1,1.6E0));
#181=VERTEX_POINT('',#180);
#182=CARTESIAN_POINT('',(0.E0,1.E1,2.1E0));
#183=VERTEX_POINT('',#182);
#184=CARTESIAN_POINT('',(0.E0,1.E1,2.702243689841E0));
#185=VERTEX_POINT('',#184);
#186=CARTESIAN_POINT('',(0.E0,1.038757024665E1,3.189439287689E0));
#187=VERTEX_POINT('',#186);
#188=CARTESIAN_POINT('',(0.E0,1.594514257338E1,4.471955978473E0));
#189=VERTEX_POINT('',#188);
#190=CARTESIAN_POINT('',(0.E0,1.706944010688E1,4.6E0));
#191=VERTEX_POINT('',#190);
#192=CARTESIAN_POINT('',(0.E0,2.1E1,4.6E0));
#193=VERTEX_POINT('',#192);
#194=CARTESIAN_POINT('',(0.E0,3.E1,1.3E0));
#195=CARTESIAN_POINT('',(0.E0,3.E1,2.75E0));
#196=VERTEX_POINT('',#194);
#197=VERTEX_POINT('',#195);
#198=CARTESIAN_POINT('',(0.E0,3.025E1,3.E0));
#199=VERTEX_POINT('',#198);
#200=CARTESIAN_POINT('',(0.E0,3.6E1,3.E0));
#201=VERTEX_POINT('',#200);
#202=CARTESIAN_POINT('',(0.E0,3.6E1,6.E0));
#203=VERTEX_POINT('',#202);
#204=CARTESIAN_POINT('',(0.E0,3.025E1,6.E0));
#205=VERTEX_POINT('',#204);
#206=CARTESIAN_POINT('',(0.E0,0.E0,0.E0));
#207=DIRECTION('',(1.E0,0.E0,0.E0));
#208=DIRECTION('',(0.E0,0.E0,-1.E0));
#209=AXIS2_PLACEMENT_3D('',#206,#207,#208);
#210=PLANE('',#209);
#212=ORIENTED_EDGE('',*,*,#211,.T.);
#214=ORIENTED_EDGE('',*,*,#213,.T.);
#216=ORIENTED_EDGE('',*,*,#215,.T.);
#218=ORIENTED_EDGE('',*,*,#217,.T.);
#220=ORIENTED_EDGE('',*,*,#219,.T.);
#222=ORIENTED_EDGE('',*,*,#221,.T.);
#224=ORIENTED_EDGE('',*,*,#223,.T.);
#226=ORIENTED_EDGE('',*,*,#225,.T.);
#228=ORIENTED_EDGE('',*,*,#227,.T.);
#230=ORIENTED_EDGE('',*,*,#229,.T.);
#232=ORIENTED_EDGE('',*,*,#231,.T.);
#234=ORIENTED_EDGE('',*,*,#233,.T.);
#236=ORIENTED_EDGE('',*,*,#235,.T.);
#238=ORIENTED_EDGE('',*,*,#237,.T.);
#240=ORIENTED_EDGE('',*,*,#239,.T.);
#242=ORIENTED_EDGE('',*,*,#241,.T.);
#244=ORIENTED_EDGE('',*,*,#243,.T.);
#246=ORIENTED_EDGE('',*,*,#245,.T.);
#248=ORIENTED_EDGE('',*,*,#247,.T.);
#250=ORIENTED_EDGE('',*,*,#249,.T.);
#252=ORIENTED_EDGE('',*,*,#251,.T.);
#254=ORIENTED_EDGE('',*,*,#253,.T.);
#255=EDGE_LOOP('',(#212,#214,#216,#218,#220,#222,#224,#226,#228,#230,#232,#234,
#236,#238,#240,#242,#244,#246,#248,#250,#252,#254));
#256=FACE_OUTER_BOUND('',#255,.F.);
#258=ORIENTED_EDGE('',*,*,#257,.T.);
#260=ORIENTED_EDGE('',*,*,#259,.T.);
#262=ORIENTED_EDGE('',*,*,#261,.T.);
#264=ORIENTED_EDGE('',*,*,#263,.T.);
#266=ORIENTED_EDGE('',*,*,#265,.T.);
#268=ORIENTED_EDGE('',*,*,#267,.T.);
#270=ORIENTED_EDGE('',*,*,#269,.T.);
#272=ORIENTED_EDGE('',*,*,#271,.T.);
#274=ORIENTED_EDGE('',*,*,#273,.T.);
#276=ORIENTED_EDGE('',*,*,#275,.T.);
#277=EDGE_LOOP('',(#258,#260,#262,#264,#266,#268,#270,#272,#274,#276));
#278=FACE_BOUND('',#277,.F.);
#279=ADVANCED_FACE('',(#256,#278),#210,.T.);
#283=DIMENSIONAL_EXPONENTS(0.E0,0.E0,0.E0,0.E0,0.E0,0.E0,0.E0);
#285=PLANE_ANGLE_MEASURE_WITH_UNIT(PLANE_ANGLE_MEASURE(1.745329251994E-2),#284);
#286=(CONVERSION_BASED_UNIT('DEGREE',#285)NAMED_UNIT(*)PLANE_ANGLE_UNIT());
#288=UNCERTAINTY_MEASURE_WITH_UNIT(LENGTH_MEASURE(8.E-3),#282,'closure',
'Maximum model space distance between geometric entities at asserted connectivities');
#289=(GEOMETRIC_REPRESENTATION_CONTEXT(3)GLOBAL_UNCERTAINTY_ASSIGNED_CONTEXT((
#288))GLOBAL_UNIT_ASSIGNED_CONTEXT((#282,#286,#287))REPRESENTATION_CONTEXT
('ID1','3'));
#291=APPLICATION_CONTEXT(
'CONFIGURATION CONTROLLED 3D DESIGNS OF MECHANICAL PARTS AND ASSEMBLIES');
#292=APPLICATION_PROTOCOL_DEFINITION('international standard',
'config_control_design',1994,#291);
#293=DESIGN_CONTEXT('',#291,'design');
#294=MECHANICAL_CONTEXT('',#291,'mechanical');
#295=PRODUCT('GNHGHGHGH','GNHGHGHGH','NOT SPECIFIED',(#294));
#296=PRODUCT_DEFINITION_FORMATION_WITH_SPECIFIED_SOURCE('1','LAST_VERSION',#295,
.MADE.);
#300=PRODUCT_CATEGORY('part','');
#301=PRODUCT_RELATED_PRODUCT_CATEGORY('detail','',(#295));
#302=PRODUCT_CATEGORY_RELATIONSHIP('','',#300,#301);
#303=SECURITY_CLASSIFICATION_LEVEL('unclassified');
#304=SECURITY_CLASSIFICATION('','',#303);
#305=CC_DESIGN_SECURITY_CLASSIFICATION(#304,(#296));
#306=APPROVAL_STATUS('approved');
#307=APPROVAL(#306,'');
#308=CC_DESIGN_APPROVAL(#307,(#304,#296,#297));
#309=CALENDAR_DATE(125,19,11);
#310=COORDINATED_UNIVERSAL_TIME_OFFSET(0,0,.BEHIND.);
#311=LOCAL_TIME(15,32,5.1E1,#310);
#312=DATE_AND_TIME(#309,#311);
#313=APPROVAL_DATE_TIME(#312,#307);
#314=DATE_TIME_ROLE('creation_date');
#315=CC_DESIGN_DATE_AND_TIME_ASSIGNMENT(#312,#314,(#297));
#316=DATE_TIME_ROLE('classification_date');
#317=CC_DESIGN_DATE_AND_TIME_ASSIGNMENT(#312,#316,(#304));
#318=PERSON('UNSPECIFIED','UNSPECIFIED',$,$,$,$);
#319=ORGANIZATION('UNSPECIFIED','UNSPECIFIED','UNSPECIFIED');
#320=PERSON_AND_ORGANIZATION(#318,#319);
#321=APPROVAL_ROLE('approver');
#322=APPROVAL_PERSON_ORGANIZATION(#320,#307,#321);
#323=PERSON_AND_ORGANIZATION_ROLE('creator');
#324=CC_DESIGN_PERSON_AND_ORGANIZATION_ASSIGNMENT(#320,#323,(#296,#297));
#325=PERSON_AND_ORGANIZATION_ROLE('design_supplier');
#326=CC_DESIGN_PERSON_AND_ORGANIZATION_ASSIGNMENT(#320,#325,(#296));
#327=PERSON_AND_ORGANIZATION_ROLE('classification_officer');
#328=CC_DESIGN_PERSON_AND_ORGANIZATION_ASSIGNMENT(#320,#327,(#304));
#329=PERSON_AND_ORGANIZATION_ROLE('design_owner');
#330=CC_DESIGN_PERSON_AND_ORGANIZATION_ASSIGNMENT(#320,#329,(#295));
#25=CIRCLE('',#24,1.E0);
#34=CIRCLE('',#33,5.E-1);
#43=CIRCLE('',#42,8.E0);
#52=CIRCLE('',#51,5.E-1);
#61=CIRCLE('',#60,2.5E-1);
#78=CIRCLE('',#77,2.5E-1);
#87=CIRCLE('',#86,5.E-1);
#96=CIRCLE('',#95,8.E0);
#105=CIRCLE('',#104,1.E0);
#114=CIRCLE('',#113,5.E0);
#123=CIRCLE('',#122,5.E-1);
#132=CIRCLE('',#131,5.E-1);
#141=CIRCLE('',#140,2.5E-1);
#211=EDGE_CURVE('',#145,#144,#4,.T.);
#213=EDGE_CURVE('',#144,#173,#8,.T.);
#215=EDGE_CURVE('',#173,#171,#12,.T.);
#217=EDGE_CURVE('',#171,#169,#16,.T.);
#219=EDGE_CURVE('',#169,#167,#20,.T.);
#221=EDGE_CURVE('',#167,#165,#25,.T.);
#223=EDGE_CURVE('',#165,#163,#29,.T.);
#225=EDGE_CURVE('',#163,#161,#34,.T.);
#227=EDGE_CURVE('',#161,#159,#38,.T.);
#229=EDGE_CURVE('',#159,#157,#43,.T.);
#231=EDGE_CURVE('',#157,#156,#47,.T.);
#233=EDGE_CURVE('',#156,#153,#52,.T.);
#235=EDGE_CURVE('',#153,#152,#56,.T.);
#237=EDGE_CURVE('',#152,#205,#61,.T.);
#239=EDGE_CURVE('',#205,#203,#65,.T.);
#241=EDGE_CURVE('',#203,#201,#69,.T.);
#243=EDGE_CURVE('',#201,#199,#73,.T.);
#245=EDGE_CURVE('',#199,#197,#78,.T.);
#247=EDGE_CURVE('',#197,#196,#82,.T.);
#249=EDGE_CURVE('',#196,#149,#87,.T.);
#251=EDGE_CURVE('',#149,#147,#91,.T.);
#253=EDGE_CURVE('',#147,#145,#96,.T.);
#257=EDGE_CURVE('',#177,#176,#100,.T.);
#259=EDGE_CURVE('',#176,#193,#105,.T.);
#261=EDGE_CURVE('',#193,#191,#109,.T.);
#263=EDGE_CURVE('',#191,#189,#114,.T.);
#265=EDGE_CURVE('',#189,#187,#118,.T.);
#267=EDGE_CURVE('',#187,#185,#123,.T.);
#269=EDGE_CURVE('',#185,#183,#127,.T.);
#271=EDGE_CURVE('',#183,#181,#132,.T.);
#273=EDGE_CURVE('',#181,#179,#136,.T.);
#275=EDGE_CURVE('',#179,#177,#141,.T.);
#280=OPEN_SHELL('',(#279));
#281=SHELL_BASED_SURFACE_MODEL('',(#280));
#282=(LENGTH_UNIT()NAMED_UNIT(*)SI_UNIT(.MILLI.,.METRE.));
#284=(NAMED_UNIT(*)PLANE_ANGLE_UNIT()SI_UNIT($,.RADIAN.));
#287=(NAMED_UNIT(*)SI_UNIT($,.STERADIAN.)SOLID_ANGLE_UNIT());
#290=MANIFOLD_SURFACE_SHAPE_REPRESENTATION('',(#281),#289);
#297=PRODUCT_DEFINITION('design','',#296,#293);
#298=PRODUCT_DEFINITION_SHAPE('','SHAPE FOR GNHGHGHGH.',#297);
#299=SHAPE_DEFINITION_REPRESENTATION(#298,#290);
ENDSEC;
END-ISO-10303-21;
